<?xml version="1.0" standalone="no"?>
<!DOCTYPE svg PUBLIC "-//W3C//DTD SVG 20010904//EN"
 "http://www.w3.org/TR/2001/REC-SVG-20010904/DTD/svg10.dtd">
<svg version="1.0" xmlns="http://www.w3.org/2000/svg"
 width="100.000000pt" height="128.000000pt" viewBox="0 0 100.000000 128.000000"
 preserveAspectRatio="xMidYMid meet">

<g transform="translate(0.000000,128.000000) scale(0.100000,-0.100000)"
fill="#000000" stroke="none">
<path d="M280 1244 c0 -27 -5 -37 -20 -41 -17 -4 -20 -14 -20 -58 0 -44 3 -54
20 -58 18 -5 20 -14 20 -82 0 -68 -2 -77 -19 -82 -14 -4 -21 -15 -23 -42 -2
-29 -8 -37 -25 -39 -18 -3 -23 2 -23 17 0 14 -6 21 -20 21 -13 0 -20 7 -20 20
0 18 -7 20 -55 20 -44 0 -55 -3 -55 -16 0 -9 -9 -18 -20 -21 -28 -8 -28 -68 0
-76 11 -3 20 -12 20 -20 0 -8 9 -17 20 -20 11 -3 20 -12 20 -20 0 -8 9 -17 20
-20 11 -3 20 -12 20 -20 0 -8 9 -17 20 -20 11 -3 20 -12 20 -20 0 -8 9 -17 20
-20 18 -5 20 -14 20 -82 0 -68 -2 -77 -20 -82 -18 -5 -20 -14 -20 -78 0 -64 2
-73 20 -78 11 -3 20 -12 20 -20 0 -8 9 -17 20 -20 11 -3 20 -12 20 -20 0 -11
12 -17 38 -19 l37 -3 3 -123 3 -122 54 0 54 0 3 103 3 102 60 0 60 0 3 -102 3
-103 54 0 54 0 3 123 3 122 38 3 c25 2 37 8 37 19 0 8 9 17 20 20 11 3 20 12
20 20 0 8 9 17 20 20 18 5 20 14 20 78 0 64 -2 73 -20 78 -18 5 -20 14 -20 82
0 67 2 77 19 82 11 3 21 13 24 24 3 10 12 19 20 19 8 0 17 9 20 20 3 11 12 20
21 20 9 0 16 7 16 16 0 9 9 18 19 21 11 3 21 13 24 24 3 11 14 19 26 19 17 0
21 6 21 35 0 29 -4 35 -21 35 -12 0 -23 8 -26 20 -5 17 -14 20 -59 20 -47 0
-54 -2 -54 -20 0 -13 -7 -20 -20 -20 -14 0 -20 -7 -20 -21 0 -15 -5 -20 -22
-17 -18 2 -24 10 -26 39 -2 27 -9 38 -23 42 -17 5 -19 14 -19 82 0 68 2 77 20
82 17 4 20 14 20 58 0 44 -3 54 -20 58 -11 3 -20 12 -20 21 0 12 -10 16 -36
16 -27 0 -37 5 -41 20 -5 19 -14 20 -179 20 l-174 0 0 -36z m310 -138 c0 -7
-9 -16 -20 -19 -11 -3 -20 -12 -20 -20 0 -8 -9 -17 -20 -20 -17 -4 -20 -14
-20 -61 0 -43 -3 -56 -15 -56 -12 0 -15 13 -15 56 0 47 -3 57 -19 61 -11 3
-21 13 -24 24 -4 14 -14 19 -41 19 -25 0 -36 4 -36 15 0 12 19 15 115 15 91 0
115 -3 115 -14z m-240 -41 c0 -8 -7 -15 -15 -15 -8 0 -15 7 -15 15 0 8 7 15
15 15 8 0 15 -7 15 -15z m320 0 c0 -8 -7 -15 -15 -15 -8 0 -15 7 -15 15 0 8 7
15 15 15 8 0 15 -7 15 -15z m-240 -80 l0 -55 -35 0 -35 0 0 55 0 55 35 0 35 0
0 -55z m200 0 l0 -55 -35 0 -35 0 0 55 0 55 35 0 35 0 0 -55z m-280 -81 c0 -9
9 -18 20 -21 11 -3 20 -11 20 -18 0 -7 -9 -15 -20 -18 -25 -7 -26 -37 -1 -44
11 -3 21 -13 24 -24 5 -17 15 -19 102 -19 87 0 97 2 102 19 3 11 13 21 24 24
25 7 24 37 -1 44 -24 6 -27 33 -4 33 9 0 18 9 21 20 3 11 11 20 18 20 7 0 15
-9 18 -20 3 -11 12 -20 20 -20 11 0 17 -12 19 -37 3 -36 5 -38 41 -41 32 -3
39 0 44 17 3 12 12 21 20 21 8 0 17 9 20 20 5 17 14 20 59 20 l54 0 0 -35 c0
-25 -4 -35 -16 -35 -9 0 -18 -9 -21 -20 -3 -11 -12 -20 -20 -20 -8 0 -17 -9
-20 -20 -3 -11 -12 -20 -20 -20 -8 0 -17 -9 -20 -20 -3 -11 -12 -20 -20 -20
-8 0 -17 -9 -20 -19 -3 -11 -13 -21 -24 -24 -17 -5 -19 -15 -19 -102 0 -88 2
-97 20 -102 15 -4 20 -14 20 -38 0 -24 -5 -34 -20 -38 -11 -3 -20 -12 -20 -20
0 -8 -9 -17 -20 -20 -11 -3 -20 -12 -20 -21 0 -13 -11 -16 -56 -16 -47 0 -57
-3 -61 -20 -5 -18 -14 -20 -98 -20 -84 0 -93 2 -98 20 -4 17 -14 20 -61 20
-45 0 -56 3 -56 16 0 9 -9 18 -19 21 -11 3 -21 13 -24 24 -3 10 -12 19 -21 19
-26 0 -22 66 4 73 18 5 20 14 20 102 0 88 -2 97 -20 102 -11 3 -20 12 -20 20
0 8 -9 17 -20 20 -11 3 -20 12 -20 20 0 8 -9 17 -20 20 -11 3 -20 12 -20 20 0
8 -9 17 -19 20 -11 3 -21 13 -24 24 -3 10 -12 19 -21 19 -12 0 -16 10 -16 35
l0 35 54 0 c45 0 54 -3 59 -20 3 -11 12 -20 20 -20 8 0 17 -9 20 -21 5 -17 12
-20 44 -17 36 3 38 5 41 39 2 27 9 38 23 42 10 3 19 12 19 21 0 9 7 16 15 16
8 0 15 -7 15 -16z"/>
</g>
</svg>
